# xmcd CD database file
#
# Track frame offsets:
#	150
#	26297
#	50108
#	76461
#	100911
#	123026
#
# Disc length: 1997 seconds
#
# Revision: 0
# Processed by: cddbd v1.5.2PL0 Copyright (c) Steve Scherf et al.
# Submitted via: CDex 1.70beta2
#
DISCID=4107cb06
DTITLE=signal+noise - VERMILION
DYEAR=2007
DGENRE=Doujin
TTITLE0=HUNDRED SOWRDS
TTITLE1=ROSSO CORSA
TTITLE2=RACING HEART
TTITLE3=HUMAN SYSTEM
TTITLE4=SILVER ARROW
TTITLE5=VERMILION
EXTD=YEAR: 2007
EXTT0=
EXTT1=
EXTT2=
EXTT3=
EXTT4=
EXTT5=
PLAYORDER=
